<svg width="175" height="34" viewBox="0 0 175 34" fill="none" xmlns="http://www.w3.org/2000/svg">
<path d="M37.5342 0C39.4744 0 40.6521 2.17382 39.614 3.83893C33.5877 13.505 27.5613 23.1711 21.535 32.8372C20.5606 34.4002 18.3108 34.3845 17.3576 32.8082L13.7774 26.8881C15.9551 23.387 20.2299 16.4316 20.3106 16.3886C20.3738 16.3563 19.3937 14.4437 18.5182 12.7655C17.9326 11.643 18.74 10.2864 19.9906 10.2953C21.94 10.3092 24.2067 10.3153 24.2628 10.2697C24.3616 10.1895 30.5137 0 30.5137 0H37.5342Z" fill="#E9E9E9"/>
<path d="M0.352972 3.81904C-0.623364 2.17243 0.540921 0.106292 2.43316 0.0995146C12.0657 0.0650135 14.5951 0.0339525 26.407 4.06193e-05C24.8772 2.63873 22.5832 6.84326 22.0433 7.83524C21.971 7.96813 21.8338 8.04986 21.6843 8.04986H15.7948C14.5762 8.04986 13.7826 9.35143 14.3255 10.4598L16.9888 15.8974C17.0506 16.0236 17.0454 16.1729 16.9751 16.2944L12.4282 24.1495C11.0835 21.7877 4.10939 10.1543 0.352972 3.81904Z" fill="#7D5AB5"/>
<path d="M51.356 21.954C51.5107 21.954 51.617 21.8767 51.675 21.722L52.603 19.547H58.287L56.315 24.216C55.9863 24.9893 55.4353 25.6467 54.662 26.188C53.8887 26.7293 53.1153 27 52.342 27H40.249C38.915 27 37.9773 26.5457 37.436 25.637C36.914 24.709 36.943 23.578 37.523 22.244L42.337 10.876C42.8977 9.542 43.6903 8.42067 44.715 7.512C45.7397 6.584 46.919 6.12 48.253 6.12H61.216C61.9893 6.12 62.5307 6.39067 62.84 6.932C63.1493 7.47333 63.1397 8.13067 62.811 8.904L60.839 13.573H55.155L56.054 11.398C56.1313 11.2433 56.0927 11.166 55.938 11.166H48.282C48.0307 11.166 47.847 11.2917 47.731 11.543L43.468 21.577C43.3713 21.8283 43.4487 21.954 43.7 21.954H51.356ZM65.7142 6.12H72.2102L73.2542 13.631L80.8812 6.12H87.6672L73.7472 19.692L70.6442 27H64.9602L68.0632 19.692L65.7142 6.12ZM80.7162 27L89.5902 6.12H103.191C104.197 6.12 104.98 6.36167 105.54 6.845C106.12 7.309 106.41 7.95667 106.41 8.788C106.41 9.31 106.294 9.90933 106.062 10.586C105.85 11.2433 105.569 11.9007 105.221 12.558C104.873 13.2153 104.477 13.8147 104.032 14.356C103.607 14.8973 103.191 15.3033 102.785 15.574C103.327 16.0767 103.597 16.85 103.597 17.894C103.597 18.7833 103.394 19.7597 102.988 20.823C102.602 21.867 102.07 22.853 101.393 23.781C100.717 24.6897 99.9336 25.4533 99.0442 26.072C98.1549 26.6907 97.2172 27 96.2312 27H80.7162ZM88.5462 21.954H95.1872C95.5932 21.954 95.9992 21.809 96.4052 21.519C96.8112 21.229 97.0916 20.8907 97.2462 20.504L97.4492 20.04C97.5459 19.7887 97.5942 19.576 97.5942 19.402C97.5942 18.8413 97.2752 18.561 96.6372 18.561H89.9962L88.5462 21.954ZM91.7072 14.501H97.3622C97.7682 14.501 98.1742 14.356 98.5802 14.066C98.9862 13.776 99.2762 13.428 99.4502 13.022L99.6242 12.616C99.7016 12.4613 99.7402 12.2777 99.7402 12.065C99.7402 11.4463 99.4212 11.137 98.7832 11.137H93.1282L91.7072 14.501ZM123.707 21.954L121.561 27H104.161L113.035 6.12H130.435L128.289 11.166H116.573L115.181 14.443H125.592L123.794 18.677H113.383L111.991 21.954H123.707ZM133.761 6.12H148.261C149.595 6.12 150.523 6.584 151.045 7.512C151.567 8.44 151.548 9.56133 150.987 10.876L149.073 15.4C148.512 16.6953 147.652 17.8167 146.492 18.764C145.351 19.692 143.959 20.156 142.316 20.156H142.2L144.723 27H138.198L136.226 20.156H133.471L130.571 27H124.887L133.761 6.12ZM143.041 15.342C143.292 15.342 143.466 15.2163 143.563 14.965L145.013 11.543C145.129 11.2917 145.061 11.166 144.81 11.166H137.299L135.53 15.342H143.041Z" fill="white"/>
<path d="M153.053 27L159.781 11.166H152.763L154.909 6.12H174.629L172.483 11.166H165.465L158.737 27H153.053Z" fill="#7D5AB5"/>
</svg>
