<svg width="100" height="80" viewBox="0 0 100 80" fill="none" xmlns="http://www.w3.org/2000/svg">
<path d="M48.8084 21.0026C48.8084 20.1693 48.4611 19.8927 48.0946 19.551H42.9717C42.3525 19.7963 42.1303 20.4845 41.7247 20.3926C41.3192 20.3008 41.0686 18.0207 41.0686 18.0207C41.0686 18.0207 41.5698 17.577 41.7247 17.6382C41.8797 17.6994 41.8248 17.976 41.9791 18.0207C42.1334 18.0655 49.2907 18.0207 49.2907 18.0207C49.9471 17.4928 50.1701 16.9954 50.3664 15.6454V5.41353C50.3664 5.41353 49.2907 4.76679 49.2907 4.27719C49.2907 3.78759 51.496 2 51.496 2V20.3926V79C49.4068 74.6444 48.842 71.08 48.8084 63.7807V29.7175V21.0026Z" fill="#D799FD"/>
<path d="M54.1836 21.002C54.1836 20.1686 54.5309 19.8921 54.8974 19.5504H60.0201C60.6392 19.7957 60.8614 20.4838 61.267 20.392C61.6725 20.3002 61.9231 18.0202 61.9231 18.0202C61.9231 18.0202 61.4219 17.5764 61.267 17.6377C61.112 17.6989 61.1669 17.9754 61.0126 18.0202C60.8584 18.065 53.7014 18.0202 53.7014 18.0202C53.045 17.4923 52.822 16.9949 52.6257 15.6449V5.41349C52.6257 5.41349 53.7014 4.76677 53.7014 4.27719C53.7014 3.78761 51.4887 2.00024 51.4887 2.00024L51.3407 11.2473L51.2302 20.392L50.9736 49.8936L51.4887 78.9972C53.5778 74.6417 54.15 71.0774 54.1836 63.7784V29.7165V21.002Z" fill="#D799FD"/>
<path d="M42.2395 23.0535L60.7521 38.9774L60.0968 51.6903L43.4193 40.0587L42.2395 23.0535Z" fill="#D799FD"/>
<path d="M43.4227 49.314L59.2385 60.8442V69.1004L43.4221 63.4035L43.4227 49.314Z" fill="#D799FD"/>
<path d="M58.6702 54.279L55.7296 55.9768L55.7296 52.5812L58.6702 54.279Z" fill="#D799FD"/>
<path d="M43.4377 47.1133L46.3783 45.4156L46.3783 48.8111L43.4377 47.1133Z" fill="#D799FD"/>
<path d="M77.1116 62.8599C75.2865 59.0726 75.5836 52.5695 75.8733 41.7525L75.8157 27.7001C75.6904 27.2738 75.5543 27.1083 75.2446 26.9228L73.4624 26.9318C73.1096 26.978 72.9658 27.0726 72.7779 27.3246L72.6881 26.1575L75.8976 26.2697L76.223 25.9443L76.6158 19.5815L76.0133 18.979L77.0827 17.9096L78.2238 19.0507L77.6707 19.6039L78.041 25.8321L78.3776 26.1687L81.6544 26.1014L81.632 27.3583C81.3916 27.0879 81.2188 26.981 80.824 26.9318L79.0846 26.9879C78.7474 27.1444 78.6077 27.2913 78.5225 27.7577L78.4361 41.6661C78.7765 52.5757 79.029 58.8841 77.1116 62.8599Z" fill="#D799FD"/>
<path d="M23.4895 62.8599C21.6645 59.0726 21.9615 52.5695 22.2512 41.7525L22.1936 27.7001C22.0684 27.2738 21.9322 27.1083 21.6225 26.9228L19.8404 26.9318C19.4875 26.978 19.3437 27.0726 19.1558 27.3246L19.066 26.1575L22.2755 26.2697L22.601 25.9443L22.9937 19.5815L22.3912 18.979L23.4606 17.9096L24.6018 19.0507L24.0486 19.6039L24.4189 25.8321L24.7556 26.1687L28.0324 26.1014L28.0099 27.3583C27.7695 27.0879 27.5967 26.981 27.2019 26.9318L25.4625 26.9879C25.1253 27.1444 24.9857 27.2913 24.9004 27.7577L24.814 41.6661C25.1544 52.5757 25.4069 58.8841 23.4895 62.8599Z" fill="#D799FD"/>
</svg>
