<svg width="100" height="80" viewBox="0 0 100 80" fill="none" xmlns="http://www.w3.org/2000/svg">
<path d="M15 6C23.6095 9.01396 33.1299 19.4592 49.2793 36.5192L70.9245 58.0154C71.7706 58.4779 72.2335 58.523 72.9931 58.3322L75.7131 55.5809C76.1836 54.968 76.259 54.6017 76.1607 53.9261L78.0887 55.5809L72.9931 60.3383V61.3381L82.1514 71.7148H84V75H80.4988V73.3006L70.3764 64.3028H69.3435L64.4201 69.4395L62.5264 67.4745C63.31 67.5205 63.7391 67.4193 64.4201 66.8884L67.0023 64.1305C67.2796 63.3721 67.2685 62.932 66.6838 62.0846L45.4803 40.5885C28.2223 24.3539 18.1576 15.0521 15 6Z" fill="#D799FD"/>
<path d="M84 6C75.3905 9.01396 65.8701 19.4592 49.7207 36.5192L28.0755 58.0154C27.2294 58.4779 26.7665 58.523 26.0069 58.3322L23.2869 55.5809C22.8164 54.968 22.741 54.6017 22.8393 53.9261L20.9113 55.5809L26.0069 60.3383V61.3381L16.8486 71.7148H15V75H18.5012V73.3006L28.6236 64.3028H29.6565L34.5799 69.4395L36.4736 67.4745C35.69 67.5205 35.2609 67.4193 34.5799 66.8884L31.9977 64.1305C31.7204 63.3721 31.7315 62.932 32.3162 62.0846L53.5197 40.5885C70.7777 24.3539 80.8424 15.0521 84 6Z" fill="#D799FD"/>
</svg>
