<svg width="100" height="80" viewBox="0 0 100 80" fill="none" xmlns="http://www.w3.org/2000/svg">
<path d="M19.3677 7.61517C19.4111 7.29404 20.4758 6.73424 21.8562 6.30705C25.9833 5.02994 26.7966 5.38864 32.0648 10.811C33.8322 12.63 35.9643 14.7301 36.8025 15.4777C42.4461 20.5101 54.0119 30.9996 58.9089 35.5268C62.1084 38.4848 66.2352 42.1857 68.0793 43.7516C69.9235 45.317 72.6563 47.7856 74.152 49.2371C75.6477 50.6887 77.3954 52.1891 78.036 52.5716C78.6761 52.9541 79.9756 54.0936 80.9234 55.1038L82.6472 56.9405L82.1662 58.8028C81.0435 63.149 75.7913 73.0455 74.4265 73.3857C74.166 73.4508 71.7916 73.1432 69.1497 72.7025L64.3459 71.9013L57.8186 62.4794C54.2284 57.2974 47.3912 47.5719 42.625 40.867C37.8588 34.1626 31.8417 25.6182 29.2541 21.8801C26.6662 18.1419 23.3658 13.5293 21.9204 11.6301C20.4746 9.73043 19.3258 7.92369 19.3677 7.61517Z" fill="white"/>
<path d="M19.3677 7.61517C19.4111 7.29404 20.4758 6.73424 21.8562 6.30705C25.9833 5.02994 26.7966 5.38864 32.0648 10.811C33.8322 12.63 35.9643 14.7301 36.8025 15.4777C42.4461 20.5101 54.0119 30.9996 58.9089 35.5268C62.1084 38.4848 66.2352 42.1857 68.0793 43.7516C69.9235 45.317 72.6563 47.7856 74.152 49.2371C75.6477 50.6887 77.3954 52.1891 78.036 52.5716C78.6761 52.9541 79.9756 54.0936 80.9234 55.1038L82.6472 56.9405L82.1662 58.8028C81.0435 63.149 75.7913 73.0455 74.4265 73.3857C74.166 73.4508 71.7916 73.1432 69.1497 72.7025L64.3459 71.9013L57.8186 62.4794C54.2284 57.2974 47.3912 47.5719 42.625 40.867C37.8588 34.1626 31.8417 25.6182 29.2541 21.8801C26.6662 18.1419 23.3658 13.5293 21.9204 11.6301C20.4746 9.73043 19.3258 7.92369 19.3677 7.61517Z" fill="#D799FD"/>
<path d="M67.704 12.3241C69.9415 12.0915 72.1208 11.8663 72.5468 11.8237C74.0586 11.6733 75.9323 12.4704 77.7081 14.0188C79.5823 15.6531 80.0835 16.9784 79.2744 18.16C78.5305 19.2464 76.9144 24.0715 76.6815 25.9019C76.5006 27.3235 76.3257 27.6249 75.627 27.7195C75.1664 27.7819 74.3457 28.3001 73.8456 27.9401C72.0695 26.6615 59.6437 14.2538 59.8968 13.935C60.0385 13.7566 61.4243 12.8251 62.2088 12.7977C62.9935 12.7699 65.4664 12.5571 67.704 12.3241Z" fill="white"/>
<path d="M67.704 12.3241C69.9415 12.0915 72.1208 11.8663 72.5468 11.8237C74.0586 11.6733 75.9323 12.4704 77.7081 14.0188C79.5823 15.6531 80.0835 16.9784 79.2744 18.16C78.5305 19.2464 76.9144 24.0715 76.6815 25.9019C76.5006 27.3235 76.3257 27.6249 75.627 27.7195C75.1664 27.7819 74.3457 28.3001 73.8456 27.9401C72.0695 26.6615 59.6437 14.2538 59.8968 13.935C60.0385 13.7566 61.4243 12.8251 62.2088 12.7977C62.9935 12.7699 65.4664 12.5571 67.704 12.3241Z" fill="#D799FD"/>
<path d="M12.5738 61.0194C12.49 60.8298 17.4485 54.1224 19.9348 51.0616C20.2055 50.7281 20.6358 50.482 20.8908 50.5145C21.1459 50.547 25.3664 53.9933 30.2698 58.1728L39.1847 65.7721L37.0554 66.166C35.8844 66.3829 34.6183 66.5226 34.2424 66.4768C33.8665 66.4311 32.0668 66.5457 30.243 66.7312C28.2379 66.9353 25.4605 66.9498 23.2167 66.768L19.5061 66.4673L16.093 63.8635C14.2159 62.4312 12.6324 61.1514 12.5738 61.0194Z" fill="white"/>
<path d="M12.5738 61.0194C12.49 60.8298 17.4485 54.1224 19.9348 51.0616C20.2055 50.7281 20.6358 50.482 20.8908 50.5145C21.1459 50.547 25.3664 53.9933 30.2698 58.1728L39.1847 65.7721L37.0554 66.166C35.8844 66.3829 34.6183 66.5226 34.2424 66.4768C33.8665 66.4311 32.0668 66.5457 30.243 66.7312C28.2379 66.9353 25.4605 66.9498 23.2167 66.768L19.5061 66.4673L16.093 63.8635C14.2159 62.4312 12.6324 61.1514 12.5738 61.0194Z" fill="#D799FD"/>
</svg>
